<?xml version="1.0" encoding="UTF-8"?>
<svg xmlns="http://www.w3.org/2000/svg" xmlns:xlink="http://www.w3.org/1999/xlink" width="93px" height="70px" viewBox="0 0 93 70" version="1.1">
<g id="surface2">
<path style="fill:none;stroke-width:5;stroke-linecap:butt;stroke-linejoin:miter;stroke:rgb(0%,0%,0%);stroke-opacity:1;stroke-miterlimit:10;" d="M 1500.604839 649.735714 C 1500.604839 300.20625 1216.741935 16.778571 866.612903 16.778571 C 516.41129 16.778571 232.548387 300.20625 232.548387 649.735714 C 232.548387 999.3375 516.41129 1282.765179 866.612903 1282.765179 C 1216.741935 1282.765179 1500.604839 999.3375 1500.604839 649.735714 Z M 1500.604839 649.735714 " transform="matrix(0.0538194,0,0,0.0540123,0,0)"/>
<path style=" stroke:none;fill-rule:nonzero;fill:rgb(0%,0%,0%);fill-opacity:1;" d="M 68.78125 12.734375 C 61.507812 13.011719 51.308594 14.589844 40.332031 19.195312 C 38.5625 19.933594 36.539062 20.402344 35.195312 21.753906 C 34.199219 22.753906 33.078125 26.164062 30.097656 27.832031 C 20.28125 33.328125 15.28125 39.1875 15.28125 39.1875 C 15.28125 39.1875 16.628906 39.828125 17.367188 41.761719 C 17.988281 43.394531 18.78125 45.554688 20.578125 47.207031 C 20.984375 47.578125 21.652344 47.890625 22.054688 48.554688 C 22.953125 50.046875 26.964844 53.875 29.839844 55.617188 C 31.894531 56.859375 32.875 57.214844 31.550781 56.089844 C 30.753906 55.414062 30 54.328125 29.292969 53.285156 C 27.410156 50.519531 25.949219 47.476562 26.242188 45.570312 C 27.035156 40.398438 42.496094 33.746094 46.5 37.210938 C 49.574219 39.871094 50.265625 41.417969 49.042969 47.339844 C 48.546875 49.753906 46.710938 54.488281 43.625 56.699219 C 41.085938 58.519531 39.25 59.71875 34.015625 58.160156 C 32.996094 57.855469 35.609375 59.828125 39.421875 60.964844 C 40.5625 61.304688 38.726562 63.894531 39.953125 64.1875 C 42.789062 64.863281 47.640625 64.5 50.773438 63.683594 C 52.417969 63.257812 53.667969 62.234375 53.734375 62.191406 C 57.523438 59.59375 61.835938 52.167969 59.355469 55.132812 C 58.132812 56.589844 54.375 58.492188 53.453125 57.945312 C 51.921875 57.035156 54.046875 53.148438 54.84375 52.148438 C 57.796875 48.429688 58.0625 50.570312 61.683594 48.25 C 63.347656 47.179688 68.113281 38.484375 65.808594 33.394531 C 63.503906 28.300781 62.121094 26.894531 54.628906 25.039062 C 53.460938 24.746094 60.351562 24.820312 63.652344 27.035156 C 66.183594 28.738281 66.632812 30.648438 66.863281 31.128906 C 70.015625 37.769531 64.996094 43.113281 67.628906 43.113281 C 71.695312 43.113281 71.988281 43.136719 72.914062 43.613281 C 75.636719 45.019531 75.773438 47.246094 76.070312 46.738281 C 79.566406 40.761719 78.765625 32.738281 76.636719 25.984375 C 76.636719 25.988281 70.359375 12.671875 68.78125 12.734375 Z M 68.78125 12.734375 "/>
<path style=" stroke:none;fill-rule:nonzero;fill:rgb(100%,100%,100%);fill-opacity:1;" d="M 30.375 29.132812 C 31.804688 28.175781 33.101562 27.019531 34.21875 25.707031 C 35.050781 24.726562 35.789062 23.660156 36.722656 22.777344 C 37.78125 21.785156 39.0625 21.0625 40.351562 20.390625 C 41.964844 19.554688 43.824219 19.148438 45.636719 19 C 44.265625 19.390625 42.972656 20.003906 42.058594 21.101562 C 41.140625 22.199219 40.386719 23.429688 39.460938 24.519531 C 38.898438 25.183594 38.273438 25.789062 37.601562 26.335938 C 36.148438 27.511719 34.429688 28.394531 32.589844 28.691406 C 32.175781 28.757812 31.757812 28.796875 31.355469 28.914062 C 30.71875 29.097656 30.144531 29.480469 29.722656 29.992188 C 29.902344 29.589844 30.210938 29.242188 30.375 29.132812 Z M 30.375 29.132812 "/>
<path style=" stroke:none;fill-rule:nonzero;fill:rgb(100%,100%,100%);fill-opacity:1;" d="M 51.339844 18.542969 C 51.917969 17.546875 53.125 17.09375 54.269531 16.976562 C 55.589844 16.839844 56.917969 17.054688 58.21875 17.304688 C 59.519531 17.554688 60.820312 17.847656 62.144531 17.878906 C 63.472656 17.90625 64.84375 17.648438 65.929688 16.886719 C 65.1875 17.617188 64.414062 18.367188 63.441406 18.726562 C 62.636719 19.023438 61.761719 19.03125 60.90625 19.003906 C 60.152344 18.980469 59.398438 18.933594 58.660156 18.796875 C 57.792969 18.636719 56.953125 18.355469 56.085938 18.199219 C 54.507812 17.910156 52.851562 18.035156 51.339844 18.542969 Z M 51.339844 18.542969 "/>
</g>
</svg>
